<svg xmlns="http://www.w3.org/2000/svg" width="1387" height="756" viewBox="0 0 1387 756">
<g>
<path d="M 520.50 597.62 C511.02,599.06 503.72,599.39 502.76,598.42 C502.11,597.77 509.49,591.06 545.00,559.99 C596.03,515.35 626.41,487.76 609.60,501.31 C601.27,508.03 538.62,554.25 533.95,557.12 C527.80,560.91 515.45,565.37 506.63,567.00 C498.45,568.51 480.33,567.83 474.68,565.80 L 470.85 564.42 L 502.18 544.25 C519.40,533.15 557.58,508.62 587.00,489.72 L 640.50 455.37 L 660.69 431.94 L 680.88 408.50 L 695.50 408.50 L 695.50 484.43 L 679.79 488.98 L 664.09 493.52 L 646.38 518.51 C636.65,532.25 624.38,549.58 619.12,557.00 C607.49,573.43 600.79,580.66 591.33,586.99 C583.62,592.14 570.98,597.50 563.86,598.63 C560.19,599.22 559.67,599.10 560.60,597.91 C561.21,597.14 575.56,578.95 592.49,557.50 C609.42,536.05 623.72,517.83 624.27,517.00 C624.82,516.17 610.92,529.96 593.38,547.64 C558.85,582.45 553.18,587.07 537.52,593.14 C533.11,594.85 525.45,596.87 520.50,597.62 ZM 845.96 417.38 C842.51,421.07 838.41,424.99 836.85,426.11 L 834.00 428.14 L 834.00 330.53 L 820.49 316.99 L 806.97 303.44 L 825.24 291.43 C835.28,284.82 846.07,277.85 849.22,275.95 C852.37,274.05 854.96,272.20 854.97,271.84 C854.99,271.48 851.96,269.51 848.25,267.47 C844.54,265.43 840.02,262.47 838.22,260.88 L 834.93 258.00 L 839.75 258.00 C845.77,258.00 863.76,255.75 879.35,253.05 C892.46,250.78 907.09,250.40 915.20,252.12 C925.38,254.28 935.21,260.93 941.36,269.79 C943.86,273.41 944.40,273.66 953.24,275.29 C962.77,277.04 977.05,283.19 980.54,287.04 C982.14,288.81 982.10,288.93 979.86,289.33 C964.71,292.06 947.61,295.54 944.00,296.63 C939.00,298.13 922.43,311.39 910.50,323.43 C903.39,330.61 902.38,332.14 886.02,360.50 C870.48,387.42 859.81,402.57 845.96,417.38 ZM 908.00 279.00 C909.11,280.11 911.33,281.00 913.00,281.00 C918.91,281.00 922.00,274.31 918.44,269.22 C916.58,266.56 911.55,266.23 908.22,268.56 C905.32,270.59 905.20,276.20 908.00,279.00 Z" fill="rgb(6,73,126)"/>
<path d="M 670.00 197.00 L 670.00 321.00 L 662.75 320.88 C658.76,320.82 654.71,320.56 653.75,320.31 C652.11,319.88 652.00,316.09 652.00,258.43 L 652.00 197.00 ZM 693.38 331.44 C691.94,331.80 687.89,332.00 684.38,331.89 L 678.00 331.68 L 678.00 215.00 L 696.00 215.00 L 696.00 330.78 ZM 722.00 232.00 L 722.00 344.00 L 713.67 344.00 C709.08,344.00 705.03,343.70 704.67,343.33 C704.30,342.97 704.00,317.77 704.00,287.33 L 704.00 232.00 ZM 748.00 250.00 L 748.00 358.00 L 739.67 358.00 C735.08,358.00 731.03,357.70 730.67,357.33 C730.30,356.97 730.00,332.67 730.00,303.33 L 730.00 250.00 ZM 774.00 277.00 L 774.00 369.00 L 765.67 369.00 C761.08,369.00 757.03,368.70 756.67,368.33 C756.30,367.97 756.00,347.27 756.00,322.33 L 756.00 277.00 ZM 593.00 243.00 C593.00,267.20 592.78,287.00 592.50,287.00 C592.22,287.00 592.00,286.57 592.00,286.04 C592.00,285.51 588.06,284.95 583.25,284.79 L 574.50 284.50 L 573.98 199.00 L 593.00 199.00 ZM 799.99 342.75 L 799.99 382.50 L 790.49 382.62 L 781.00 382.75 L 781.00 303.00 L 800.00 303.00 ZM 505.00 166.00 L 505.00 248.00 L 487.00 248.00 L 487.00 166.00 ZM 817.00 394.82 C811.63,394.63 807.83,394.90 807.58,395.50 C807.35,396.05 807.12,378.39 807.08,356.25 C807.04,334.11 807.35,316.00 807.77,316.00 C808.19,316.00 812.47,319.95 817.27,324.77 L 826.00 333.54 L 826.00 395.14 ZM 618.80 265.13 C619.06,281.66 618.73,299.23 618.20,296.50 C618.08,295.89 614.47,295.63 609.00,295.82 L 600.00 296.14 L 600.00 245.92 L 609.25 246.21 L 618.50 246.50 ZM 644.88 293.75 C644.95,301.59 644.89,307.91 644.75,307.79 C644.61,307.68 640.34,307.44 635.25,307.25 L 626.00 306.92 L 626.00 281.86 L 634.98 282.18 C642.30,282.44 644.03,282.22 644.36,281.00 C644.58,280.17 644.82,285.91 644.88,293.75 ZM 559.00 267.64 C559.00,276.61 558.88,277.55 557.89,276.56 C557.65,276.31 553.52,276.03 548.72,275.92 L 540.00 275.73 L 540.00 258.14 L 559.00 258.28 ZM 532.00 245.34 L 532.00 262.50 L 513.00 262.50 L 513.00 245.42 L 522.50 245.38 ZM 469.08 237.00 C462.89,237.00 460.01,237.38 459.66,238.25 C459.38,238.94 459.13,235.68 459.09,231.00 C459.06,226.06 459.38,223.05 459.87,223.82 C460.46,224.75 462.80,225.09 467.61,224.96 C468.33,224.94 469.00,224.92 469.63,224.91 C474.52,224.76 476.57,224.70 477.42,225.68 C478.03,226.38 478.02,227.63 478.01,229.77 C478.00,230.15 478.00,230.56 478.00,231.00 L 478.00 237.00 ZM 449.42 216.39 C447.07,217.30 434.70,217.10 433.18,216.13 C432.35,215.61 431.98,213.84 432.18,211.40 L 432.50 207.50 L 441.75 207.21 L 451.00 206.92 L 451.00 211.36 C451.00,214.47 450.53,215.97 449.42,216.39 Z" fill="rgb(26,151,226)"/>
<path d="M 719.75 477.37 C718.51,477.69 714.46,478.83 710.75,479.91 L 704.00 481.86 L 704.00 287.33 C704.00,317.77 704.30,342.97 704.67,343.33 C705.03,343.70 709.08,344.00 713.67,344.00 L 722.00 344.00 L 722.00 476.78 ZM 740.00 471.64 C735.88,472.86 731.94,473.89 731.25,473.93 C730.26,473.98 730.00,450.97 730.00,362.00 L 730.00 303.33 C730.00,332.67 730.30,356.97 730.67,357.33 C731.03,357.70 735.08,358.00 739.67,358.00 L 747.76 358.00 L 747.75 359.72 L 747.50 469.44 ZM 644.74 307.79 L 644.97 396.00 L 626.00 396.00 L 626.00 306.92 L 635.25 307.25 C640.25,307.43 644.47,307.67 644.74,307.79 ZM 766.00 463.58 C761.88,464.90 757.94,465.98 757.25,465.99 C756.26,466.00 756.00,446.44 756.00,371.50 L 756.00 322.33 C756.00,347.27 756.30,367.97 756.67,368.33 C757.03,368.70 761.08,369.00 765.67,369.00 L 773.76 369.00 L 773.76 369.09 L 773.50 461.19 ZM 618.77 315.25 L 619.04 384.00 L 600.00 384.00 L 600.00 296.14 L 609.00 295.82 C614.47,295.63 618.08,295.89 618.20,296.50 C618.39,297.50 618.56,295.80 618.68,292.44 ZM 593.00 243.00 L 593.00 368.00 L 574.00 368.00 L 574.00 202.52 L 574.50 284.50 L 583.25 284.79 C588.06,284.95 592.00,285.51 592.00,286.04 C592.00,286.57 592.22,287.00 592.50,287.00 C592.78,287.00 593.00,267.20 593.00,243.00 ZM 662.75 320.88 L 670.00 321.00 L 670.00 406.00 L 652.00 406.00 L 652.00 258.43 C652.00,316.09 652.11,319.88 653.75,320.31 C654.71,320.56 658.76,320.82 662.75,320.88 ZM 449.42 216.39 C450.53,215.97 451.00,214.47 451.00,211.36 L 451.00 259.00 L 432.00 259.00 L 432.00 173.00 L 451.00 173.00 L 451.00 206.92 L 441.75 207.21 L 432.50 207.50 L 432.18 211.40 C431.98,213.84 432.35,215.61 433.18,216.13 C434.70,217.10 447.07,217.30 449.42,216.39 ZM 558.78 276.11 L 559.01 351.00 L 539.99 351.00 L 540.22 275.73 L 548.72 275.92 C553.52,276.03 557.65,276.31 557.89,276.56 C558.35,277.01 558.62,277.06 558.78,276.11 ZM 799.99 342.75 L 800.00 303.00 L 800.00 450.76 L 791.58 454.38 C786.94,456.37 782.67,458.00 782.08,458.00 C781.33,458.00 781.01,435.80 781.00,382.75 L 790.49 382.62 L 799.99 382.50 ZM 693.38 331.44 L 695.79 330.84 L 695.75 349.72 L 695.50 484.43 L 695.50 408.50 L 680.88 408.50 L 661.37 431.15 C671.72,419.11 680.00,409.16 680.00,408.76 C680.00,408.34 679.55,408.00 679.00,408.00 C678.41,408.00 678.08,382.09 678.01,331.69 L 684.38 331.89 C687.89,332.00 691.94,331.80 693.38,331.44 ZM 513.67 332.33 C513.32,331.99 513.04,301.27 513.00,262.50 L 532.00 262.50 L 532.00 333.00 L 523.17 333.00 C518.31,333.00 514.03,332.70 513.67,332.33 ZM 558.50 186.69 L 558.72 258.28 L 540.28 258.14 L 540.50 186.50 L 549.50 186.59 ZM 532.00 245.34 L 513.00 245.42 L 513.00 177.00 L 532.00 177.00 ZM 478.00 155.92 L 478.00 227.98 C477.97,226.89 477.84,226.16 477.42,225.68 C476.57,224.70 474.52,224.76 469.63,224.91 C469.00,224.92 468.33,224.94 467.61,224.96 C462.80,225.09 460.46,224.75 459.87,223.82 C459.59,223.38 459.36,224.20 459.22,225.93 C459.23,224.47 459.23,222.99 459.24,221.50 L 459.50 156.50 L 468.75 156.21 ZM 644.50 217.50 L 644.68 283.98 C644.58,281.76 644.47,280.60 644.36,281.00 C644.03,282.22 642.30,282.44 634.98,282.18 L 626.00 281.86 L 626.00 216.92 L 635.25 217.21 ZM 487.00 186.72 L 487.00 248.00 L 505.00 248.00 L 505.00 313.00 L 487.16 313.00 L 486.83 305.25 C486.65,300.99 486.63,267.91 486.80,231.75 ZM 469.08 237.00 L 478.00 237.00 L 478.00 289.00 L 468.97 289.00 C462.66,289.00 459.79,288.62 459.46,287.75 C459.23,287.15 459.13,264.54 459.20,235.15 C459.30,237.43 459.48,238.71 459.66,238.25 C460.01,237.38 462.89,237.00 469.08,237.00 ZM 817.00 394.82 L 826.00 395.14 L 826.00 435.52 L 823.75 436.95 C822.51,437.74 818.70,440.09 815.27,442.19 C811.84,444.29 808.58,446.00 808.02,446.00 C807.34,446.00 807.00,424.44 807.00,381.00 C807.00,370.76 807.03,361.05 807.07,352.41 C807.08,353.67 807.08,354.96 807.08,356.25 C807.12,378.39 807.35,396.05 807.58,395.50 C807.83,394.90 811.63,394.63 817.00,394.82 ZM 423.77 206.39 L 424.04 226.00 L 405.00 226.00 L 405.00 206.50 C405.00,187.68 405.07,187.00 407.00,186.95 C408.10,186.92 412.26,186.87 416.25,186.84 L 423.50 186.79 ZM 826.00 333.46 L 826.00 333.54 L 817.27 324.77 ZM 774.00 277.00 L 774.01 277.00 L 774.00 280.77 ZM 748.00 250.00 L 748.01 250.00 L 748.00 253.79 ZM 696.00 218.83 L 696.00 215.00 L 696.01 215.00 ZM 807.60 316.98 C807.65,316.34 807.69,316.00 807.73,316.00 C807.74,316.00 807.75,316.00 807.76,316.00 C807.71,316.05 807.65,316.38 807.60,316.98 Z" fill="rgb(40,166,111)"/>
<path d="M 0.00 378.00 L 0.00 0.00 L 693.50 0.00 L 1387.00 0.00 L 1387.00 378.00 L 1387.00 756.00 L 693.50 756.00 L 0.00 756.00 L 0.00 378.00 ZM 520.50 597.62 C525.45,596.87 533.11,594.85 537.52,593.14 C553.18,587.07 558.85,582.45 593.38,547.64 C610.92,529.96 624.82,516.17 624.27,517.00 C623.72,517.83 609.42,536.05 592.49,557.50 C575.56,578.95 561.21,597.14 560.60,597.91 C559.67,599.10 560.19,599.22 563.86,598.63 C570.98,597.50 583.62,592.14 591.33,586.99 C600.79,580.66 607.49,573.43 619.12,557.00 C624.38,549.58 636.65,532.25 646.38,518.51 L 664.09 493.52 L 679.79 488.98 L 695.50 484.43 L 695.75 349.72 L 696.01 215.00 L 687.00 215.00 L 678.00 215.00 L 678.00 311.50 C678.00,375.17 678.34,408.00 679.00,408.00 C679.55,408.00 680.00,408.34 680.00,408.76 C680.00,409.18 671.11,419.84 660.25,432.45 L 640.50 455.37 L 587.00 489.72 C557.58,508.62 519.40,533.15 502.18,544.25 L 470.85 564.42 L 474.68 565.80 C480.33,567.83 498.45,568.51 506.63,567.00 C515.45,565.37 527.80,560.91 533.95,557.12 C538.62,554.25 601.27,508.03 609.60,501.31 C626.41,487.76 596.03,515.35 545.00,559.99 C509.49,591.06 502.11,597.77 502.76,598.42 C503.72,599.39 511.02,599.06 520.50,597.62 ZM 719.75 477.37 L 722.00 476.78 L 722.00 354.39 L 722.00 232.00 L 713.00 232.00 L 704.00 232.00 L 704.00 356.93 L 704.00 481.86 L 710.75 479.91 C714.46,478.83 718.51,477.69 719.75,477.37 ZM 740.00 471.64 L 747.50 469.44 L 747.75 359.72 L 748.01 250.00 L 739.00 250.00 L 730.00 250.00 L 730.00 362.00 C730.00,450.97 730.26,473.98 731.25,473.93 C731.94,473.89 735.88,472.86 740.00,471.64 ZM 766.00 463.58 L 773.50 461.19 L 773.76 369.09 L 774.01 277.00 L 765.01 277.00 L 756.00 277.00 L 756.00 371.50 C756.00,446.44 756.26,466.00 757.25,465.99 C757.94,465.98 761.88,464.90 766.00,463.58 ZM 791.58 454.38 L 800.00 450.76 L 800.00 376.88 L 800.00 303.00 L 790.50 303.00 L 781.00 303.00 L 781.00 380.50 C781.00,435.17 781.32,458.00 782.08,458.00 C782.67,458.00 786.94,456.37 791.58,454.38 ZM 815.27 442.19 C818.70,440.09 822.51,437.74 823.75,436.95 L 826.00 435.52 L 826.00 384.49 L 826.00 333.46 L 817.23 324.73 C812.41,319.93 808.13,316.00 807.73,316.00 C807.33,316.00 807.00,345.25 807.00,381.00 C807.00,424.44 807.34,446.00 808.02,446.00 C808.58,446.00 811.84,444.29 815.27,442.19 ZM 845.96 417.38 C859.81,402.57 870.48,387.42 886.02,360.50 C902.38,332.14 903.39,330.61 910.50,323.43 C922.43,311.39 939.00,298.13 944.00,296.63 C947.61,295.54 964.71,292.06 979.86,289.33 C982.10,288.93 982.14,288.81 980.54,287.04 C977.05,283.19 962.77,277.04 953.24,275.29 C944.40,273.66 943.86,273.41 941.36,269.79 C935.21,260.93 925.38,254.28 915.20,252.12 C907.09,250.40 892.46,250.78 879.35,253.05 C863.76,255.75 845.77,258.00 839.75,258.00 L 834.93 258.00 L 838.22 260.88 C840.02,262.47 844.54,265.43 848.25,267.47 C851.96,269.51 854.99,271.48 854.97,271.84 C854.96,272.20 852.37,274.05 849.22,275.95 C846.07,277.85 835.28,284.82 825.24,291.43 L 806.97 303.44 L 820.49 316.99 L 834.00 330.53 L 834.00 379.33 L 834.00 428.14 L 836.85 426.11 C838.41,424.99 842.51,421.07 845.96,417.38 ZM 670.00 301.50 L 670.00 197.00 L 661.00 197.00 L 652.00 197.00 L 652.00 301.50 L 652.00 406.00 L 661.00 406.00 L 670.00 406.00 L 670.00 301.50 ZM 644.74 306.75 L 644.50 217.50 L 635.25 217.21 L 626.00 216.92 L 626.00 306.46 L 626.00 396.00 L 635.49 396.00 L 644.97 396.00 L 644.74 306.75 ZM 618.77 315.25 L 618.50 246.50 L 609.25 246.21 L 600.00 245.92 L 600.00 314.96 L 600.00 384.00 L 609.52 384.00 L 619.04 384.00 L 618.77 315.25 ZM 593.00 283.50 L 593.00 199.00 L 583.50 199.00 L 574.00 199.00 L 574.00 283.50 L 574.00 368.00 L 583.50 368.00 L 593.00 368.00 L 593.00 283.50 ZM 558.76 268.84 L 558.50 186.69 L 549.50 186.59 L 540.50 186.50 L 540.24 268.75 L 539.99 351.00 L 549.50 351.00 L 559.01 351.00 L 558.76 268.84 ZM 532.00 255.00 L 532.00 177.00 L 522.50 177.00 L 513.00 177.00 L 513.00 254.33 C513.00,296.87 513.30,331.97 513.67,332.33 C514.03,332.70 518.31,333.00 523.17,333.00 L 532.00 333.00 L 532.00 255.00 ZM 505.00 239.50 L 505.00 166.00 L 496.05 166.00 L 487.09 166.00 L 486.80 231.75 C486.63,267.91 486.65,300.99 486.83,305.25 L 487.16 313.00 L 496.08 313.00 L 505.00 313.00 L 505.00 239.50 ZM 478.00 222.46 L 478.00 155.92 L 468.75 156.21 L 459.50 156.50 L 459.24 221.50 C459.10,257.25 459.20,287.06 459.46,287.75 C459.79,288.62 462.66,289.00 468.97,289.00 L 478.00 289.00 L 478.00 222.46 ZM 451.00 216.00 L 451.00 173.00 L 441.50 173.00 L 432.00 173.00 L 432.00 216.00 L 432.00 259.00 L 441.50 259.00 L 451.00 259.00 L 451.00 216.00 ZM 423.77 206.39 L 423.50 186.79 L 416.25 186.84 C412.26,186.87 408.10,186.92 407.00,186.95 C405.07,187.00 405.00,187.68 405.00,206.50 L 405.00 226.00 L 414.52 226.00 L 424.04 226.00 L 423.77 206.39 ZM 908.00 279.00 C905.20,276.20 905.32,270.59 908.22,268.56 C911.55,266.23 916.58,266.56 918.44,269.22 C922.00,274.31 918.91,281.00 913.00,281.00 C911.33,281.00 909.11,280.11 908.00,279.00 Z" fill="rgb(254,254,254)"/>
</g>
</svg>